<svg width="20" height="20" viewBox="0 0 20 20" fill="none" xmlns="http://www.w3.org/2000/svg">
<path d="M9.99988 16.875C6.20821 16.875 3.12488 13.7917 3.12488 10C3.12488 6.20833 6.20821 3.125 9.99988 3.125C13.7915 3.125 16.8749 6.20833 16.8749 10C16.8749 13.7917 13.7915 16.875 9.99988 16.875ZM9.99988 4.375C6.89988 4.375 4.37488 6.9 4.37488 10C4.37488 13.1 6.89988 15.625 9.99988 15.625C13.0999 15.625 15.6249 13.1 15.6249 10C15.6249 6.9 13.0999 4.375 9.99988 4.375Z" fill="#292D32"/>
<path d="M9.99988 13.125C8.27488 13.125 6.87488 11.725 6.87488 10C6.87488 8.275 8.27488 6.875 9.99988 6.875C11.7249 6.875 13.1249 8.275 13.1249 10C13.1249 11.725 11.7249 13.125 9.99988 13.125ZM9.99988 8.125C8.96654 8.125 8.12488 8.96667 8.12488 10C8.12488 11.0333 8.96654 11.875 9.99988 11.875C11.0332 11.875 11.8749 11.0333 11.8749 10C11.8749 8.96667 11.0332 8.125 9.99988 8.125Z" fill="#292D32"/>
<path d="M9.99988 3.95835C9.65821 3.95835 9.37488 3.67502 9.37488 3.33335V1.66669C9.37488 1.32502 9.65821 1.04169 9.99988 1.04169C10.3415 1.04169 10.6249 1.32502 10.6249 1.66669V3.33335C10.6249 3.67502 10.3415 3.95835 9.99988 3.95835Z" fill="#292D32"/>
<path d="M3.33329 10.625H1.66663C1.32496 10.625 1.04163 10.3417 1.04163 10C1.04163 9.65833 1.32496 9.375 1.66663 9.375H3.33329C3.67496 9.375 3.95829 9.65833 3.95829 10C3.95829 10.3417 3.67496 10.625 3.33329 10.625Z" fill="#292D32"/>
<path d="M9.99988 18.9584C9.65821 18.9584 9.37488 18.675 9.37488 18.3334V16.6667C9.37488 16.325 9.65821 16.0417 9.99988 16.0417C10.3415 16.0417 10.6249 16.325 10.6249 16.6667V18.3334C10.6249 18.675 10.3415 18.9584 9.99988 18.9584Z" fill="#292D32"/>
<path d="M18.3333 10.625H16.6666C16.325 10.625 16.0416 10.3417 16.0416 10C16.0416 9.65833 16.325 9.375 16.6666 9.375H18.3333C18.675 9.375 18.9583 9.65833 18.9583 10C18.9583 10.3417 18.675 10.625 18.3333 10.625Z" fill="#292D32"/>
</svg>
