<svg width="17" height="17" viewBox="0 0 17 17" fill="none" xmlns="http://www.w3.org/2000/svg">
<g clip-path="url(#clip0_769_12595)">
<path d="M13.3573 5.46426C14.6985 5.46426 15.7859 4.37695 15.7859 3.03569C15.7859 1.69443 14.6985 0.607117 13.3573 0.607117C12.016 0.607117 10.9287 1.69443 10.9287 3.03569C10.9287 4.37695 12.016 5.46426 13.3573 5.46426Z" stroke="#3F71D1" stroke-linecap="round" stroke-linejoin="round"/>
<path d="M13.3572 7.89282C10.3215 7.89282 10.3215 16.3928 10.3215 16.3928H16.393C16.393 16.3928 16.393 7.89282 13.3572 7.89282Z" stroke="#535353" stroke-linecap="round" stroke-linejoin="round"/>
<path d="M3.64293 5.46426C4.98419 5.46426 6.0715 4.37695 6.0715 3.03569C6.0715 1.69443 4.98419 0.607117 3.64293 0.607117C2.30166 0.607117 1.21436 1.69443 1.21436 3.03569C1.21436 4.37695 2.30166 5.46426 3.64293 5.46426Z" stroke="#3F71D1" stroke-linecap="round" stroke-linejoin="round"/>
<path d="M3.64289 16.3928C0.607178 16.3928 0.607178 7.89282 0.607178 7.89282H6.67861C6.67861 7.89282 6.67861 16.3928 3.64289 16.3928Z" stroke="#535353" stroke-linecap="round" stroke-linejoin="round"/>
</g>
<defs>
<clipPath id="clip0_769_12595">
<rect width="17" height="17" fill="white"/>
</clipPath>
</defs>
</svg>
