<svg width="30" height="30" viewBox="0 0 30 30" fill="none" xmlns="http://www.w3.org/2000/svg">
<path d="M25 25H24.2308C23.4147 25 22.6321 24.6758 22.0551 24.0988C21.478 23.5218 21.1538 22.7391 21.1538 21.9231C21.1538 22.7391 20.8297 23.5218 20.2526 24.0988C19.6756 24.6758 18.893 25 18.0769 25C17.2609 25 16.4782 24.6758 15.9012 24.0988C15.3242 23.5218 15 22.7391 15 21.9231C15 22.7391 14.6758 23.5218 14.0988 24.0988C13.5218 24.6758 12.7391 25 11.9231 25C11.107 25 10.3244 24.6758 9.74736 24.0988C9.17033 23.5218 8.84615 22.7391 8.84615 21.9231C8.84615 22.7391 8.52198 23.5218 7.94494 24.0988C7.36791 24.6758 6.58528 25 5.76923 25H5" stroke="#3F71D1" stroke-width="1.5" stroke-linecap="round" stroke-linejoin="round"/>
<path d="M8.0769 8.07692C8.0769 7.26087 8.40108 6.47824 8.97811 5.90121C9.55515 5.32417 10.3378 5 11.1538 5C11.9699 5 12.7525 5.32417 13.3295 5.90121C13.9066 6.47824 14.2308 7.26087 14.2308 8.07692V18.8462" stroke="#989898" stroke-width="1.5" stroke-linecap="round" stroke-linejoin="round"/>
<path d="M18.8462 5C19.6622 5 20.4449 5.32417 21.0219 5.90121C21.5989 6.47824 21.9231 7.26087 21.9231 8.07692V18.8462" stroke="#989898" stroke-width="1.5" stroke-linecap="round" stroke-linejoin="round"/>
<path d="M14.2307 11.1538H21.923" stroke="#989898" stroke-width="1.5" stroke-linecap="round" stroke-linejoin="round"/>
<path d="M14.2307 15.7692H21.923" stroke="#989898" stroke-width="1.5" stroke-linecap="round" stroke-linejoin="round"/>
</svg>
