<svg width="30" height="30" viewBox="0 0 30 30" fill="none" xmlns="http://www.w3.org/2000/svg">
<path d="M24 20.4277C24 22.7262 19.9708 24.5816 15 24.5816C10.0292 24.5816 6 22.7262 6 20.4277" stroke="#3F71D1" stroke-width="1.38462" stroke-linecap="round" stroke-linejoin="round"/>
<path d="M13.4438 5.06487C13.3702 5.02237 13.2867 4.99999 13.2017 4.99999C13.1167 4.99999 13.0332 5.02237 12.9595 5.06487C12.9095 5.12201 12.8819 5.1954 12.8819 5.27138C12.8819 5.34736 12.9095 5.42075 12.9595 5.47789C14.3838 7.95601 14.7541 11.4738 12.7174 13.3965C11.9357 12.7617 11.3076 11.9583 10.8802 11.0466C10.1219 11.4663 9.49447 12.0875 9.06718 12.8415C8.6399 13.5955 8.42943 14.453 8.45904 15.3192C8.50075 16.0703 8.6908 16.8057 9.01823 17.4829C9.34565 18.1602 9.80396 18.7659 10.3667 19.2651C10.9295 19.7642 11.5855 20.147 12.297 20.3913C13.0084 20.6356 13.7612 20.7366 14.5119 20.6885C15.2723 20.7614 16.0396 20.6758 16.7652 20.4373C17.4909 20.1987 18.1592 19.8123 18.728 19.3024C19.2968 18.7925 19.7537 18.1702 20.0698 17.4748C20.386 16.7794 20.5545 16.026 20.5648 15.2622C20.7215 11.659 18.1864 7.15846 13.4438 5.06487Z" stroke="#989898" stroke-width="1.42421" stroke-linecap="round" stroke-linejoin="round"/>
<path d="M17.5313 15.2622C17.5313 15.5795 17.4685 15.8937 17.3467 16.1866C17.2248 16.4796 17.0463 16.7456 16.8213 16.9692C16.5963 17.1929 16.3292 17.3699 16.0356 17.49C15.7419 17.6102 15.4274 17.671 15.1101 17.6692" stroke="#989898" stroke-width="1.42421" stroke-linecap="round" stroke-linejoin="round"/>
</svg>
