<svg width="20" height="20" viewBox="0 0 20 20" fill="none" xmlns="http://www.w3.org/2000/svg">
<path d="M10.0001 17.1733C9.01345 17.1733 8.02012 16.8 7.24678 16.06C5.28012 14.1667 3.10678 11.1467 3.92678 7.55334C4.66678 4.29334 7.51345 2.83334 10.0001 2.83334C10.0001 2.83334 10.0001 2.83334 10.0068 2.83334C12.4935 2.83334 15.3401 4.29334 16.0801 7.56001C16.8935 11.1533 14.7201 14.1667 12.7535 16.06C11.9801 16.8 10.9868 17.1733 10.0001 17.1733ZM10.0001 3.83334C8.06012 3.83334 5.56678 4.86668 4.90678 7.77334C4.18678 10.9133 6.16012 13.62 7.94678 15.3333C9.10012 16.4467 10.9068 16.4467 12.0601 15.3333C13.8401 13.62 15.8135 10.9133 15.1068 7.77334C14.4401 4.86668 11.9401 3.83334 10.0001 3.83334Z" fill="#535353"/>
<path d="M9.16655 11.1667C9.03988 11.1667 8.91321 11.12 8.81321 11.02L7.81321 10.02C7.61988 9.82668 7.61988 9.50668 7.81321 9.31335C8.00655 9.12001 8.32655 9.12001 8.51988 9.31335L9.16655 9.96001L11.4799 7.64668C11.6732 7.45335 11.9932 7.45335 12.1865 7.64668C12.3799 7.84001 12.3799 8.16001 12.1865 8.35334L9.51988 11.02C9.41988 11.12 9.29321 11.1667 9.16655 11.1667Z" fill="#535353"/>
</svg>
