<svg width="14" height="14" viewBox="0 0 14 14" fill="none" xmlns="http://www.w3.org/2000/svg">
<g clip-path="url(#clip0_769_12644)">
<path d="M10.5 7.99998C10.5023 7.37591 10.3377 6.76256 10.0233 6.22348C9.70888 5.6844 9.25603 5.23919 8.71168 4.93398C8.16732 4.62878 7.55126 4.47467 6.92732 4.48763C6.30338 4.50059 5.69425 4.68015 5.16303 5.00769C4.63182 5.33524 4.19785 5.79886 3.90607 6.35054C3.6143 6.90221 3.47534 7.52186 3.50359 8.1453C3.53184 8.76874 3.72626 9.37328 4.06673 9.89631C4.4072 10.4193 4.88132 10.8418 5.43998 11.12V12.84C5.44258 12.9417 5.48482 13.0383 5.55768 13.1093C5.63054 13.1803 5.72825 13.22 5.82998 13.22H8.16998C8.2717 13.22 8.36941 13.1803 8.44227 13.1093C8.51513 13.0383 8.55737 12.9417 8.55998 12.84V11.09C9.13622 10.8031 9.62219 10.3629 9.96446 9.81776C10.3067 9.27261 10.492 8.64362 10.5 7.99998V7.99998Z" stroke="#535353" stroke-linecap="round" stroke-linejoin="round"/>
<path d="M7 0.809998V2.31" stroke="#535353" stroke-linecap="round" stroke-linejoin="round"/>
<path d="M10.9999 2.23999L9.93994 3.30999" stroke="#3F71D1" stroke-linecap="round" stroke-linejoin="round"/>
<path d="M13.28 5.34003H11.78" stroke="#535353" stroke-linecap="round" stroke-linejoin="round"/>
<path d="M3 2.23999L4.06 3.30999" stroke="#3F71D1" stroke-linecap="round" stroke-linejoin="round"/>
<path d="M0.719971 5.34003H2.21997" stroke="#3F71D1" stroke-linecap="round" stroke-linejoin="round"/>
</g>
<defs>
<clipPath id="clip0_769_12644">
<rect width="14" height="14" fill="white"/>
</clipPath>
</defs>
</svg>
