<svg width="30" height="30" viewBox="0 0 30 30" fill="none" xmlns="http://www.w3.org/2000/svg">
<path d="M14.9999 22.5293C16.0016 22.5293 16.8137 21.7172 16.8137 20.7154C16.8137 19.7137 16.0016 18.9016 14.9999 18.9016C13.9981 18.9016 13.186 19.7137 13.186 20.7154C13.186 21.7172 13.9981 22.5293 14.9999 22.5293Z" stroke="#3F71D1" stroke-width="1.5" stroke-linecap="round" stroke-linejoin="round"/>
<path d="M11.5801 16.6447C12.0303 16.1824 12.5686 15.8151 13.1631 15.5642C13.7576 15.3134 14.3963 15.1842 15.0416 15.1842C15.6869 15.1842 16.3256 15.3134 16.9201 15.5642C17.5147 15.8151 18.0529 16.1824 18.5032 16.6447" stroke="#3F71D1" stroke-width="1.5" stroke-linecap="round" stroke-linejoin="round"/>
<path d="M8.57544 14.3047C9.41827 13.4569 10.4204 12.7842 11.5242 12.3251C12.6279 11.866 13.8116 11.6297 15.007 11.6297C16.2024 11.6297 17.386 11.866 18.4898 12.3251C19.5936 12.7842 20.5957 13.4569 21.4385 14.3047" stroke="#989898" stroke-width="1.5" stroke-linecap="round" stroke-linejoin="round"/>
<path d="M6 11.7293C7.18168 10.547 8.58472 9.60911 10.129 8.96922C11.6732 8.32934 13.3284 7.99998 15 7.99998C16.6716 7.99998 18.3268 8.32934 19.871 8.96922C21.4153 9.60911 22.8183 10.547 24 11.7293" stroke="#989898" stroke-width="1.5" stroke-linecap="round" stroke-linejoin="round"/>
</svg>
