<svg width="30" height="30" viewBox="0 0 30 30" fill="none" xmlns="http://www.w3.org/2000/svg">
<path d="M14.3076 19.1556H15.6922" stroke="#989898" stroke-width="1.5" stroke-linecap="round" stroke-linejoin="round"/>
<path d="M6 23.3094L10.8462 20.5402" stroke="#3F71D1" stroke-width="1.5" stroke-linecap="round" stroke-linejoin="round"/>
<path d="M6 16.3864L11.5385 17.771" stroke="#3F71D1" stroke-width="1.5" stroke-linecap="round" stroke-linejoin="round"/>
<path d="M15.6647 8.12021L23.1277 6.02944C23.2377 5.99478 23.3551 5.99064 23.4673 6.01747C23.5794 6.04429 23.6822 6.10107 23.7646 6.18175C23.8517 6.25808 23.9177 6.35541 23.9565 6.46447C23.9952 6.57353 24.0055 6.6907 23.9862 6.80483L22.4631 14.5725C22.38 14.3648 22.297 14.1433 22.2277 13.9217C21.7867 12.3136 20.8518 10.8845 19.555 9.83609C18.2582 8.78771 16.6649 8.17299 15 8.07867C13.3351 8.17299 11.7419 8.78771 10.4451 9.83609C9.14827 10.8845 8.21339 12.3136 7.77234 13.9217C7.70311 14.1571 7.62004 14.3648 7.53696 14.5864L6.01388 6.80483C5.99459 6.6907 6.00482 6.57353 6.0436 6.46447C6.08238 6.35541 6.14841 6.25808 6.23542 6.18175C6.31785 6.10107 6.42063 6.04429 6.53281 6.01747C6.64498 5.99064 6.76234 5.99478 6.87234 6.02944L14.3354 8.12021" stroke="#989898" stroke-width="1.5" stroke-linecap="round" stroke-linejoin="round"/>
<path d="M17.0769 23.0741C15.7101 23.388 14.2899 23.388 12.9231 23.0741" stroke="#989898" stroke-width="1.5" stroke-linecap="round" stroke-linejoin="round"/>
<path d="M24 23.3094L19.1538 20.5402" stroke="#3F71D1" stroke-width="1.5" stroke-linecap="round" stroke-linejoin="round"/>
<path d="M23.9999 16.3864L18.4614 17.771" stroke="#3F71D1" stroke-width="1.5" stroke-linecap="round" stroke-linejoin="round"/>
</svg>
