<svg width="20" height="20" viewBox="0 0 20 20" fill="none" xmlns="http://www.w3.org/2000/svg">
<path d="M17.7289 12.9186L12.9188 17.7288C12.7449 17.9025 12.5092 18 12.2634 18C12.0177 18 11.782 17.9025 11.6081 17.7288L3.5582 9.67891C3.51023 9.63306 3.47312 9.57706 3.44959 9.51502C3.42606 9.45297 3.41669 9.38645 3.42218 9.32032L4.15174 4.57201C4.16024 4.46334 4.20727 4.36127 4.28435 4.28419C4.36142 4.20712 4.46349 4.16009 4.57216 4.15159L9.32047 3.42203C9.3866 3.41654 9.45312 3.4259 9.51517 3.44944C9.57721 3.47297 9.63321 3.51008 9.67907 3.55805L17.7289 11.6079C17.9026 11.7818 18.0002 12.0175 18.0002 12.2633C18.0002 12.509 17.9026 12.7448 17.7289 12.9186V12.9186Z" stroke="#535353" stroke-width="1.5" stroke-linecap="round" stroke-linejoin="round"/>
<path d="M6.32789 6.32789L2 2" stroke="#535353" stroke-width="1.5" stroke-linecap="round" stroke-linejoin="round"/>
</svg>
