<svg width="18" height="18" viewBox="0 0 18 18" fill="none" xmlns="http://www.w3.org/2000/svg">
<path d="M13.9729 6.56109C15.2324 6.56109 16.2535 5.54005 16.2535 4.28054C16.2535 3.02103 15.2324 2 13.9729 2C12.7134 2 11.6924 3.02103 11.6924 4.28054C11.6924 5.54005 12.7134 6.56109 13.9729 6.56109Z" stroke="#3F71D1" stroke-linecap="round" stroke-linejoin="round"/>
<path d="M13.973 8.84161C11.1223 8.84161 11.1223 16.8235 11.1223 16.8235H16.8237C16.8237 16.8235 16.8237 8.84161 13.973 8.84161Z" stroke="#535353" stroke-linecap="round" stroke-linejoin="round"/>
<path d="M4.85061 6.56109C6.11012 6.56109 7.13115 5.54005 7.13115 4.28054C7.13115 3.02103 6.11012 2 4.85061 2C3.5911 2 2.57007 3.02103 2.57007 4.28054C2.57007 5.54005 3.5911 6.56109 4.85061 6.56109Z" stroke="#3F71D1" stroke-linecap="round" stroke-linejoin="round"/>
<path d="M4.85068 16.8235C2 16.8235 2 8.84161 2 8.84161H7.70136C7.70136 8.84161 7.70136 16.8235 4.85068 16.8235Z" stroke="#535353" stroke-linecap="round" stroke-linejoin="round"/>
</svg>
