<svg width="17" height="17" viewBox="0 0 17 17" fill="none" xmlns="http://www.w3.org/2000/svg">
<g clip-path="url(#clip0_347_3138)">
<path d="M15.5 8.42004C15.4903 9.5312 15.2378 10.6268 14.76 11.63" stroke="#535353" stroke-linecap="round" stroke-linejoin="round"/>
<path d="M9 14.92C8.14641 14.92 7.30117 14.7519 6.51256 14.4253C5.72394 14.0986 5.00739 13.6198 4.40381 13.0162C3.18482 11.7973 2.5 10.144 2.5 8.42004" stroke="#535353" stroke-linecap="round" stroke-linejoin="round"/>
<path d="M11 10.42L9 7.92004H6" stroke="#3F71D1" stroke-linecap="round" stroke-linejoin="round"/>
<path d="M14 14.42C14.8284 14.42 15.5 13.7485 15.5 12.92C15.5 12.0916 14.8284 11.42 14 11.42C13.1716 11.42 12.5 12.0916 12.5 12.92C12.5 13.7485 13.1716 14.42 14 14.42Z" stroke="#535353" stroke-linecap="round" stroke-linejoin="round"/>
<path d="M2.91992 6.02C3.13786 5.47536 3.43068 4.96376 3.78992 4.5" stroke="#535353" stroke-linecap="round" stroke-linejoin="round"/>
<path d="M5.71997 2.78002C6.28353 2.4546 6.89411 2.21847 7.52997 2.08002" stroke="#535353" stroke-linecap="round" stroke-linejoin="round"/>
<path d="M15.08 6.02C14.862 5.47536 14.5692 4.96376 14.21 4.5" stroke="#535353" stroke-linecap="round" stroke-linejoin="round"/>
<path d="M12.28 2.78002C11.7164 2.4546 11.1058 2.21847 10.47 2.08002" stroke="#535353" stroke-linecap="round" stroke-linejoin="round"/>
</g>
<defs>
<clipPath id="clip0_347_3138">
<rect width="14" height="14" fill="white" transform="translate(2 1.5)"/>
</clipPath>
</defs>
</svg>
