<svg width="18" height="18" viewBox="0 0 18 18" fill="none" xmlns="http://www.w3.org/2000/svg">
<path d="M16.8235 16.8235H16.2534C15.6486 16.8235 15.0685 16.5832 14.6408 16.1556C14.2131 15.7279 13.9728 15.1478 13.9728 14.543C13.9728 15.1478 13.7326 15.7279 13.3049 16.1556C12.8772 16.5832 12.2971 16.8235 11.6923 16.8235C11.0875 16.8235 10.5074 16.5832 10.0797 16.1556C9.65203 15.7279 9.41176 15.1478 9.41176 14.543C9.41176 15.1478 9.17149 15.7279 8.74381 16.1556C8.31612 16.5832 7.73606 16.8235 7.13122 16.8235C6.52638 16.8235 5.94632 16.5832 5.51863 16.1556C5.09095 15.7279 4.85068 15.1478 4.85068 14.543C4.85068 15.1478 4.61041 15.7279 4.18272 16.1556C3.75504 16.5832 3.17497 16.8235 2.57014 16.8235H2" stroke="#3F71D1" stroke-linecap="round" stroke-linejoin="round"/>
<path d="M4.28052 4.28054C4.28052 3.67571 4.52079 3.09564 4.94847 2.66796C5.37616 2.24027 5.95622 2 6.56106 2C7.1659 2 7.74596 2.24027 8.17365 2.66796C8.60133 3.09564 8.8416 3.67571 8.8416 4.28054V12.2624" stroke="#535353" stroke-linecap="round" stroke-linejoin="round"/>
<path d="M12.2625 2C12.8673 2 13.4474 2.24027 13.875 2.66796C14.3027 3.09564 14.543 3.67571 14.543 4.28054V12.2624" stroke="#535353" stroke-linecap="round" stroke-linejoin="round"/>
<path d="M8.84155 6.56104H14.5429" stroke="#535353" stroke-linecap="round" stroke-linejoin="round"/>
<path d="M8.84155 9.98187H14.5429" stroke="#535353" stroke-linecap="round" stroke-linejoin="round"/>
</svg>
