<svg width="30" height="30" viewBox="0 0 30 30" fill="none" xmlns="http://www.w3.org/2000/svg">
<path d="M17.7 25.75H12.3C7.36001 25.75 5.26001 23.64 5.26001 18.71V14.22C5.26001 13.81 5.60001 13.47 6.01001 13.47C6.42001 13.47 6.76001 13.81 6.76001 14.22V18.71C6.76001 22.8 8.21001 24.25 12.3 24.25H17.69C21.78 24.25 23.23 22.8 23.23 18.71V14.22C23.23 13.81 23.57 13.47 23.98 13.47C24.39 13.47 24.73 13.81 24.73 14.22V18.71C24.74 23.64 22.63 25.75 17.7 25.75Z" fill="#989898"/>
<path d="M15 15.75C13.9 15.75 12.9 15.32 12.19 14.53C11.48 13.74 11.15 12.71 11.26 11.61L11.93 4.93C11.97 4.55 12.29 4.25 12.68 4.25H17.35C17.74 4.25 18.06 4.54 18.1 4.93L18.77 11.61C18.88 12.71 18.55 13.74 17.84 14.53C17.1 15.32 16.1 15.75 15 15.75ZM13.35 5.75L12.75 11.76C12.68 12.43 12.88 13.06 13.3 13.52C14.15 14.46 15.85 14.46 16.7 13.52C17.12 13.05 17.32 12.42 17.25 11.76L16.65 5.75H13.35Z" fill="#989898"/>
<path d="M21.31 15.75C19.28 15.75 17.47 14.11 17.26 12.09L16.56 5.08C16.54 4.87 16.61 4.66 16.75 4.5C16.89 4.34 17.09 4.25 17.31 4.25H20.36C23.3 4.25 24.67 5.48 25.08 8.5L25.36 11.28C25.48 12.46 25.12 13.58 24.35 14.43C23.58 15.28 22.5 15.75 21.31 15.75ZM18.14 5.75L18.76 11.94C18.89 13.19 20.05 14.25 21.31 14.25C22.07 14.25 22.75 13.96 23.24 13.43C23.72 12.9 23.94 12.19 23.87 11.43L23.59 8.68C23.28 6.42 22.55 5.75 20.36 5.75H18.14Z" fill="#989898"/>
<path d="M8.64002 15.75C7.45002 15.75 6.37002 15.28 5.60002 14.43C4.83002 13.58 4.47002 12.46 4.59002 11.28L4.86002 8.53C5.28002 5.48 6.65002 4.25 9.59002 4.25H12.64C12.85 4.25 13.05 4.34 13.2 4.5C13.35 4.66 13.41 4.87 13.39 5.08L12.69 12.09C12.48 14.11 10.67 15.75 8.64002 15.75ZM9.59002 5.75C7.40002 5.75 6.67002 6.41 6.35002 8.7L6.08002 11.43C6.00002 12.19 6.23002 12.9 6.71002 13.43C7.19002 13.96 7.87002 14.25 8.64002 14.25C9.90002 14.25 11.07 13.19 11.19 11.94L11.81 5.75H9.59002Z" fill="#989898"/>
<path d="M17.5 25.75H12.5C12.09 25.75 11.75 25.41 11.75 25V22.5C11.75 20.4 12.9 19.25 15 19.25C17.1 19.25 18.25 20.4 18.25 22.5V25C18.25 25.41 17.91 25.75 17.5 25.75ZM13.25 24.25H16.75V22.5C16.75 21.24 16.26 20.75 15 20.75C13.74 20.75 13.25 21.24 13.25 22.5V24.25Z" fill="#3F71D1"/>
</svg>
