<svg width="30" height="30" viewBox="0 0 30 30" fill="none" xmlns="http://www.w3.org/2000/svg">
<path d="M10.5192 5L7.05771 13.1692C7.00983 13.2858 6.99131 13.4123 7.00377 13.5377C7.01624 13.663 7.05931 13.7834 7.12919 13.8882C7.19908 13.9931 7.29364 14.0791 7.40458 14.1389C7.51551 14.1986 7.63941 14.2301 7.7654 14.2308H12.0577L8.98078 25L22.1962 12.4769C22.3059 12.3711 22.3818 12.2351 22.4141 12.0862C22.4465 11.9372 22.4338 11.782 22.3778 11.6402C22.3217 11.4984 22.2248 11.3765 22.0994 11.2899C21.9739 11.2033 21.8255 11.156 21.6731 11.1538H15.9039L18.9808 5H10.5192Z" stroke="#989898" stroke-width="1.5" stroke-linecap="round" stroke-linejoin="round"/>
<path d="M9 25L20 14.5" stroke="#3F71D1" stroke-width="1.5" stroke-linecap="round"/>
</svg>
