<svg width="30" height="30" viewBox="0 0 30 30" fill="none" xmlns="http://www.w3.org/2000/svg">
<path d="M21.7694 10.7692C23.6387 10.7692 25.154 9.25389 25.154 7.38462C25.154 5.51534 23.6387 4 21.7694 4C19.9001 4 18.3848 5.51534 18.3848 7.38462C18.3848 9.25389 19.9001 10.7692 21.7694 10.7692Z" stroke="#989898" stroke-width="1.5" stroke-linecap="round" stroke-linejoin="round"/>
<path d="M21.7693 14.1538C17.5386 14.1538 17.5386 26 17.5386 26H26.0001C26.0001 26 26.0001 14.1538 21.7693 14.1538Z" stroke="#989898" stroke-width="1.5" stroke-linecap="round" stroke-linejoin="round"/>
<path d="M8.23081 10.7692C10.1001 10.7692 11.6154 9.25389 11.6154 7.38462C11.6154 5.51534 10.1001 4 8.23081 4C6.36154 4 4.84619 5.51534 4.84619 7.38462C4.84619 9.25389 6.36154 10.7692 8.23081 10.7692Z" stroke="#3F71D1" stroke-width="1.5" stroke-linecap="round" stroke-linejoin="round"/>
<path d="M8.23077 26C4 26 4 14.1538 4 14.1538H12.4615C12.4615 14.1538 12.4615 26 8.23077 26Z" stroke="#3F71D1" stroke-width="1.5" stroke-linecap="round" stroke-linejoin="round"/>
</svg>
