<svg width="30" height="30" viewBox="0 0 30 30" fill="none" xmlns="http://www.w3.org/2000/svg">
<path d="M22.6154 6H7.38462C6.61991 6 6 6.61991 6 7.38462V14.3077C6 15.0724 6.61991 15.6923 7.38462 15.6923H22.6154C23.3801 15.6923 24 15.0724 24 14.3077V7.38462C24 6.61991 23.3801 6 22.6154 6Z" stroke="#989898" stroke-width="1.5" stroke-linecap="round" stroke-linejoin="round"/>
<path d="M20.5383 15.6923V12.9231C20.5383 12.5559 20.3925 12.2037 20.1328 11.944C19.8731 11.6843 19.521 11.5385 19.1537 11.5385H10.846C10.4788 11.5385 10.1266 11.6843 9.86697 11.944C9.6073 12.2037 9.46143 12.5559 9.46143 12.9231V15.6923" stroke="#989898" stroke-width="1.5" stroke-linecap="round" stroke-linejoin="round"/>
<path d="M9.46159 19.8462L8.76929 24" stroke="#3F71D1" stroke-width="1.5" stroke-linecap="round" stroke-linejoin="round"/>
<path d="M15 19.8462V24" stroke="#3F71D1" stroke-width="1.5" stroke-linecap="round" stroke-linejoin="round"/>
<path d="M20.5386 19.8462L21.2309 24" stroke="#3F71D1" stroke-width="1.5" stroke-linecap="round" stroke-linejoin="round"/>
</svg>
