<svg width="20" height="20" viewBox="0 0 20 20" fill="none" xmlns="http://www.w3.org/2000/svg">
<path d="M13.6333 17.1667C12.8799 17.1667 12.0866 16.9867 11.2666 16.64C10.4666 16.3 9.65992 15.8333 8.87325 15.2667C8.09325 14.6933 7.33992 14.0533 6.62659 13.3533C5.91992 12.64 5.27992 11.8867 4.71325 11.1133C4.13992 10.3133 3.67992 9.51334 3.35325 8.74001C3.00659 7.91334 2.83325 7.11334 2.83325 6.36001C2.83325 5.84001 2.92659 5.34668 3.10659 4.88668C3.29325 4.41334 3.59325 3.97334 3.99992 3.59334C4.51325 3.08668 5.09992 2.83334 5.72659 2.83334C5.98659 2.83334 6.25325 2.89334 6.47992 3.00001C6.73992 3.12001 6.95992 3.30001 7.11992 3.54001L8.66658 5.72001C8.80658 5.91334 8.91325 6.10001 8.98658 6.28668C9.07325 6.48668 9.11992 6.68668 9.11992 6.88001C9.11992 7.13334 9.04658 7.38001 8.90658 7.61334C8.80658 7.79334 8.65325 7.98668 8.45992 8.18001L8.00659 8.65334C8.01325 8.67334 8.01992 8.68668 8.02659 8.70001C8.10659 8.84001 8.26658 9.08001 8.57325 9.44001C8.89992 9.81334 9.20659 10.1533 9.51325 10.4667C9.90659 10.8533 10.2333 11.16 10.5399 11.4133C10.9199 11.7333 11.1666 11.8933 11.3133 11.9667L11.2999 12L11.7866 11.52C11.9933 11.3133 12.1933 11.16 12.3866 11.06C12.7533 10.8333 13.2199 10.7933 13.6866 10.9867C13.8599 11.06 14.0466 11.16 14.2466 11.3L16.4599 12.8733C16.7066 13.04 16.8866 13.2533 16.9933 13.5067C17.0933 13.76 17.1399 13.9933 17.1399 14.2267C17.1399 14.5467 17.0666 14.8667 16.9266 15.1667C16.7866 15.4667 16.6133 15.7267 16.3933 15.9667C16.0133 16.3867 15.5999 16.6867 15.1199 16.88C14.6599 17.0667 14.1599 17.1667 13.6333 17.1667ZM5.72659 3.83334C5.35992 3.83334 5.01992 3.99334 4.69325 4.31334C4.38659 4.60001 4.17325 4.91334 4.03992 5.25334C3.89992 5.60001 3.83325 5.96668 3.83325 6.36001C3.83325 6.98001 3.97992 7.65334 4.27325 8.34668C4.57325 9.05334 4.99325 9.78668 5.52659 10.52C6.05992 11.2533 6.66658 11.9667 7.33325 12.64C7.99992 13.3 8.71992 13.9133 9.45992 14.4533C10.1799 14.98 10.9199 15.4067 11.6533 15.7133C12.7933 16.2 13.8599 16.3133 14.7399 15.9467C15.0799 15.8067 15.3799 15.5933 15.6533 15.2867C15.8066 15.12 15.9266 14.94 16.0266 14.7267C16.1066 14.56 16.1466 14.3867 16.1466 14.2133C16.1466 14.1067 16.1266 14 16.0733 13.88C16.0533 13.84 16.0133 13.7667 15.8866 13.68L13.6733 12.1067C13.5399 12.0133 13.4199 11.9467 13.3066 11.9C13.1599 11.84 13.0999 11.78 12.8733 11.92C12.7399 11.9867 12.6199 12.0867 12.4866 12.22L11.9799 12.72C11.7199 12.9733 11.3199 13.0333 11.0133 12.92L10.8333 12.84C10.5599 12.6933 10.2399 12.4667 9.88658 12.1667C9.56659 11.8933 9.21992 11.5733 8.79992 11.16C8.47325 10.8267 8.14658 10.4733 7.80658 10.08C7.49325 9.71334 7.26658 9.40001 7.12659 9.14001L7.04659 8.94001C7.00659 8.78668 6.99325 8.70001 6.99325 8.60668C6.99325 8.36668 7.07992 8.15334 7.24658 7.98668L7.74658 7.46668C7.87992 7.33334 7.97992 7.20668 8.04658 7.09334C8.09992 7.00668 8.11992 6.93334 8.11992 6.86668C8.11992 6.81334 8.09992 6.73334 8.06659 6.65334C8.01992 6.54668 7.94658 6.42668 7.85325 6.30001L6.30659 4.11334C6.23992 4.02001 6.15992 3.95334 6.05992 3.90668C5.95325 3.86001 5.83992 3.83334 5.72659 3.83334ZM11.2999 12.0067L11.1933 12.46L11.3733 11.9933C11.3399 11.9867 11.3133 11.9933 11.2999 12.0067Z" fill="#535353"/>
<path d="M14.3333 8.49999C14.06 8.49999 13.8333 8.27332 13.8333 7.99999C13.8333 7.75999 13.5933 7.25999 13.1933 6.83332C12.8 6.41332 12.3667 6.16666 12 6.16666C11.7267 6.16666 11.5 5.93999 11.5 5.66666C11.5 5.39332 11.7267 5.16666 12 5.16666C12.6467 5.16666 13.3267 5.51332 13.92 6.14666C14.4733 6.73999 14.8333 7.46666 14.8333 7.99999C14.8333 8.27332 14.6067 8.49999 14.3333 8.49999Z" fill="#535353"/>
<path d="M16.6667 8.50001C16.3933 8.50001 16.1667 8.27334 16.1667 8.00001C16.1667 5.70001 14.3 3.83334 12 3.83334C11.7267 3.83334 11.5 3.60668 11.5 3.33334C11.5 3.06001 11.7267 2.83334 12 2.83334C14.8467 2.83334 17.1667 5.15334 17.1667 8.00001C17.1667 8.27334 16.94 8.50001 16.6667 8.50001Z" fill="#535353"/>
</svg>
