<svg width="32" height="32" viewBox="0 0 32 32" fill="none" xmlns="http://www.w3.org/2000/svg">
<g clip-path="url(#clip0_357_3388)">
<path d="M14.65 21.06C13.12 22.6 10.52 23.11 9.02002 21.57C11.02 19.5 9.02002 18.5 10.52 17C10.7834 16.7066 11.1039 16.47 11.4618 16.3046C11.8197 16.1393 12.2076 16.0486 12.6017 16.0383C12.9959 16.0279 13.388 16.098 13.7541 16.2443C14.1202 16.3906 14.4527 16.61 14.7311 16.8892C15.0096 17.1683 15.2282 17.5013 15.3736 17.8678C15.519 18.2342 15.5882 18.6265 15.5768 19.0206C15.5655 19.4147 15.4739 19.8024 15.3077 20.1599C15.1414 20.5174 14.9041 20.8373 14.61 21.1L14.65 21.06Z" stroke="white" stroke-linecap="round" stroke-linejoin="round"/>
<path d="M21.4401 10.08C21.2462 9.88728 21.0148 9.73639 20.7602 9.63663C20.5057 9.53688 20.2334 9.49037 19.9601 9.49999C19.6871 9.50741 19.4184 9.57069 19.1708 9.68592C18.9231 9.80115 18.7017 9.96589 18.5201 10.17L13.1401 16.17C13.7171 16.2842 14.2445 16.5741 14.6501 17C15.015 17.3633 15.2801 17.8145 15.4201 18.31L21.3501 13C21.553 12.8196 21.7171 12.5998 21.8323 12.3539C21.9474 12.1081 22.0114 11.8413 22.0201 11.57C22.0311 11.2951 21.9853 11.0209 21.8855 10.7645C21.7857 10.5081 21.6341 10.2751 21.4401 10.08V10.08Z" stroke="white" stroke-linecap="round" stroke-linejoin="round"/>
</g>
<defs>
<clipPath id="clip0_357_3388">
<rect width="14" height="14" fill="white" transform="translate(8.52002 9)"/>
</clipPath>
</defs>
</svg>
