<svg width="20" height="20" viewBox="0 0 20 20" fill="none" xmlns="http://www.w3.org/2000/svg">
<path d="M4.30357 12.6448L7.70107 16.0423C9.09607 17.4373 11.3611 17.4373 12.7636 16.0423L16.0561 12.7498C17.4511 11.3548 17.4511 9.08978 16.0561 7.68728L12.6511 4.29728C11.9386 3.58478 10.9561 3.20228 9.95107 3.25478L6.20107 3.43478C4.70107 3.50228 3.50857 4.69478 3.43357 6.18728L3.25357 9.93727C3.20857 10.9498 3.59107 11.9323 4.30357 12.6448Z" fill="white" stroke="#535353" stroke-width="1.125" stroke-linecap="round" stroke-linejoin="round"/>
<path d="M8.30127 10.1698C9.3368 10.1698 10.1763 9.33033 10.1763 8.2948C10.1763 7.25927 9.3368 6.4198 8.30127 6.4198C7.26574 6.4198 6.42627 7.25927 6.42627 8.2948C6.42627 9.33033 7.26574 10.1698 8.30127 10.1698Z" fill="white" stroke="#535353" stroke-width="1.125" stroke-linecap="round"/>
<path d="M10.9263 13.9198L13.9263 10.9198" stroke="#535353" stroke-width="1.125" stroke-miterlimit="10" stroke-linecap="round" stroke-linejoin="round"/>
</svg>
