<svg width="14" height="14" viewBox="0 0 14 14" fill="none" xmlns="http://www.w3.org/2000/svg">
<g clip-path="url(#clip0_769_12628)">
<path d="M10.6 6.5C11.9254 6.5 13 5.15685 13 3.5C13 1.84315 11.9254 0.5 10.6 0.5C9.27447 0.5 8.19995 1.84315 8.19995 3.5C8.19995 5.15685 9.27447 6.5 10.6 6.5Z" stroke="#535353" stroke-linecap="round" stroke-linejoin="round"/>
<path d="M10.6001 6.5V13.5" stroke="#535353" stroke-linecap="round" stroke-linejoin="round"/>
<path d="M3.5 0.5V13.5" stroke="#535353" stroke-linecap="round" stroke-linejoin="round"/>
<path d="M6 0.5V3C6 3.3283 5.93534 3.65339 5.8097 3.95671C5.68406 4.26002 5.49991 4.53562 5.26777 4.76777C5.03562 4.99991 4.76002 5.18406 4.45671 5.3097C4.15339 5.43534 3.8283 5.5 3.5 5.5V5.5C2.83696 5.5 2.20107 5.23661 1.73223 4.76777C1.26339 4.29893 1 3.66304 1 3V0.5" stroke="#3F71D1" stroke-linecap="round" stroke-linejoin="round"/>
</g>
<defs>
<clipPath id="clip0_769_12628">
<rect width="14" height="14" fill="white"/>
</clipPath>
</defs>
</svg>
