<svg width="17" height="17" viewBox="0 0 17 17" fill="none" xmlns="http://www.w3.org/2000/svg">
<path d="M14.4231 12.2692C14.7087 12.2692 14.9826 12.1558 15.1846 11.9538C15.3865 11.7518 15.5 11.4779 15.5 11.1923V9.03847C15.5 8.75285 15.3865 8.47893 15.1846 8.27697C14.9826 8.075 14.7087 7.96154 14.4231 7.96154H12.8077L11.9785 5.46308C11.9035 5.24018 11.7577 5.04793 11.5632 4.9157C11.3688 4.78346 11.1364 4.71852 10.9015 4.73077H6.58308C6.34824 4.71852 6.11584 4.78346 5.92138 4.9157C5.72692 5.04793 5.58109 5.24018 5.50615 5.46308L4.73077 7.96154H2.57692C2.29131 7.96154 2.01739 8.075 1.81542 8.27697C1.61346 8.47893 1.5 8.75285 1.5 9.03847V11.1923C1.5 11.4779 1.61346 11.7518 1.81542 11.9538C2.01739 12.1558 2.29131 12.2692 2.57692 12.2692" stroke="#535353" stroke-width="0.886878" stroke-linecap="round" stroke-linejoin="round"/>
<path d="M6.88477 12.2692H10.1155" stroke="#535353" stroke-width="0.886878" stroke-linecap="round" stroke-linejoin="round"/>
<path d="M4.73075 14.423C5.92029 14.423 6.8846 13.4587 6.8846 12.2692C6.8846 11.0797 5.92029 10.1154 4.73075 10.1154C3.54121 10.1154 2.5769 11.0797 2.5769 12.2692C2.5769 13.4587 3.54121 14.423 4.73075 14.423Z" stroke="#3F71D1" stroke-width="0.886878" stroke-linecap="round" stroke-linejoin="round"/>
<path d="M12.2693 14.423C13.4589 14.423 14.4232 13.4587 14.4232 12.2692C14.4232 11.0797 13.4589 10.1154 12.2693 10.1154C11.0798 10.1154 10.1155 11.0797 10.1155 12.2692C10.1155 13.4587 11.0798 14.423 12.2693 14.423Z" stroke="#3F71D1" stroke-width="0.886878" stroke-linecap="round" stroke-linejoin="round"/>
<path d="M8.5 4.73075V2.5769" stroke="#535353" stroke-width="0.886878" stroke-linecap="round" stroke-linejoin="round"/>
</svg>
