<svg width="20" height="20" viewBox="0 0 20 20" fill="none" xmlns="http://www.w3.org/2000/svg">
<path d="M15.8275 9.4375H12.7975C11.29 9.4375 10.5625 8.7025 10.5625 7.2025V4.1725C10.5625 2.665 11.2975 1.9375 12.7975 1.9375H15.8275C17.335 1.9375 18.0625 2.6725 18.0625 4.1725V7.2025C18.0625 8.7025 17.3275 9.4375 15.8275 9.4375ZM12.7975 3.0625C11.9125 3.0625 11.6875 3.2875 11.6875 4.1725V7.2025C11.6875 8.0875 11.9125 8.3125 12.7975 8.3125H15.8275C16.7125 8.3125 16.9375 8.0875 16.9375 7.2025V4.1725C16.9375 3.2875 16.7125 3.0625 15.8275 3.0625H12.7975Z" fill="#535353"/>
<path d="M7.2025 9.4375H4.1725C2.665 9.4375 1.9375 8.77 1.9375 7.39V3.985C1.9375 2.605 2.6725 1.9375 4.1725 1.9375H7.2025C8.71 1.9375 9.4375 2.605 9.4375 3.985V7.3825C9.4375 8.77 8.7025 9.4375 7.2025 9.4375ZM4.1725 3.0625C3.1675 3.0625 3.0625 3.3475 3.0625 3.985V7.3825C3.0625 8.0275 3.1675 8.305 4.1725 8.305H7.2025C8.2075 8.305 8.3125 8.02 8.3125 7.3825V3.985C8.3125 3.34 8.2075 3.0625 7.2025 3.0625H4.1725Z" fill="#535353"/>
<path d="M7.2025 18.0625H4.1725C2.665 18.0625 1.9375 17.3275 1.9375 15.8275V12.7975C1.9375 11.29 2.6725 10.5625 4.1725 10.5625H7.2025C8.71 10.5625 9.4375 11.2975 9.4375 12.7975V15.8275C9.4375 17.3275 8.7025 18.0625 7.2025 18.0625ZM4.1725 11.6875C3.2875 11.6875 3.0625 11.9125 3.0625 12.7975V15.8275C3.0625 16.7125 3.2875 16.9375 4.1725 16.9375H7.2025C8.0875 16.9375 8.3125 16.7125 8.3125 15.8275V12.7975C8.3125 11.9125 8.0875 11.6875 7.2025 11.6875H4.1725Z" fill="#535353"/>
<path d="M16.75 13.1875H12.25C11.9425 13.1875 11.6875 12.9325 11.6875 12.625C11.6875 12.3175 11.9425 12.0625 12.25 12.0625H16.75C17.0575 12.0625 17.3125 12.3175 17.3125 12.625C17.3125 12.9325 17.0575 13.1875 16.75 13.1875Z" fill="#535353"/>
<path d="M16.75 16.1875H12.25C11.9425 16.1875 11.6875 15.9325 11.6875 15.625C11.6875 15.3175 11.9425 15.0625 12.25 15.0625H16.75C17.0575 15.0625 17.3125 15.3175 17.3125 15.625C17.3125 15.9325 17.0575 16.1875 16.75 16.1875Z" fill="#535353"/>
</svg>
