<svg width="30" height="30" viewBox="0 0 30 30" fill="none" xmlns="http://www.w3.org/2000/svg">
<path d="M18.8078 6L16.3848 13.6154L24.0001 11.1923C24.0001 9.81522 23.4531 8.49454 22.4794 7.52079C21.5056 6.54704 20.1849 6 18.8078 6Z" stroke="#989898" stroke-width="1.5" stroke-linecap="round" stroke-linejoin="round"/>
<path d="M15.6923 6.02769L15 6C13.22 6 11.4799 6.52784 9.99987 7.51677C8.51983 8.50571 7.36628 9.91131 6.68509 11.5558C6.0039 13.2004 5.82567 15.01 6.17294 16.7558C6.5202 18.5016 7.37737 20.1053 8.63604 21.364C9.89471 22.6226 11.4984 23.4798 13.2442 23.8271C14.99 24.1743 16.7996 23.9961 18.4442 23.3149C20.0887 22.6337 21.4943 21.4802 22.4832 20.0001C23.4722 18.5201 24 16.78 24 15C24 14.7646 24 14.5431 24 14.3077" stroke="#989898" stroke-width="1.5" stroke-linecap="round" stroke-linejoin="round"/>
<path d="M12.9807 19.2692C13.3949 19.2692 13.7307 18.9334 13.7307 18.5192C13.7307 18.105 13.3949 17.7692 12.9807 17.7692C12.5665 17.7692 12.2307 18.105 12.2307 18.5192C12.2307 18.9334 12.5665 19.2692 12.9807 19.2692Z" stroke="#3F71D1" stroke-linecap="round" stroke-linejoin="round"/>
<path d="M10.9038 13.0385C11.318 13.0385 11.6538 12.7027 11.6538 12.2885C11.6538 11.8742 11.318 11.5385 10.9038 11.5385C10.4896 11.5385 10.1538 11.8742 10.1538 12.2885C10.1538 12.7027 10.4896 13.0385 10.9038 13.0385Z" stroke="#3F71D1" stroke-linecap="round" stroke-linejoin="round"/>
<path d="M19.9038 17.1923C20.318 17.1923 20.6538 16.8565 20.6538 16.4423C20.6538 16.0281 20.318 15.6923 19.9038 15.6923C19.4896 15.6923 19.1538 16.0281 19.1538 16.4423C19.1538 16.8565 19.4896 17.1923 19.9038 17.1923Z" stroke="#3F71D1" stroke-linecap="round" stroke-linejoin="round"/>
<path d="M9 22L6 25" stroke="#989898" stroke-width="1.5" stroke-linecap="round"/>
<path d="M24 25L21 22" stroke="#989898" stroke-width="1.5" stroke-linecap="round"/>
</svg>
