<svg width="30" height="30" viewBox="0 0 30 30" fill="none" xmlns="http://www.w3.org/2000/svg">
<g clip-path="url(#clip0_357_3389)">
<path d="M13.8814 21.5057C11.9143 23.4857 8.57139 24.1414 6.64282 22.1614C9.21425 19.5 6.64282 18.2143 8.57139 16.2857C8.91003 15.9085 9.32204 15.6043 9.78222 15.3917C10.2424 15.1791 10.7411 15.0625 11.2479 15.0492C11.7546 15.0359 12.2588 15.126 12.7295 15.3141C13.2002 15.5022 13.6277 15.7843 13.9857 16.1432C14.3437 16.5021 14.6248 16.9302 14.8117 17.4014C14.9987 17.8726 15.0876 18.377 15.073 18.8837C15.0584 19.3904 14.9407 19.8888 14.7269 20.3485C14.5132 20.8082 14.208 21.2194 13.83 21.5571L13.8814 21.5057Z" stroke="white" stroke-width="1.5" stroke-linecap="round" stroke-linejoin="round"/>
<path d="M22.6114 7.38857C22.362 7.14081 22.0645 6.94681 21.7372 6.81855C21.4099 6.69029 21.0598 6.63049 20.7085 6.64286C20.3574 6.6524 20.012 6.73376 19.6936 6.88191C19.3752 7.03007 19.0905 7.24188 18.8571 7.50429L11.9399 15.2186C12.6817 15.3655 13.3598 15.7382 13.8814 16.2857C14.3504 16.7529 14.6914 17.3329 14.8714 17.97L22.4957 11.1429C22.7565 10.9109 22.9674 10.6283 23.1155 10.3122C23.2636 9.9961 23.3458 9.65317 23.3571 9.30429C23.3712 8.95085 23.3123 8.59829 23.184 8.26867C23.0557 7.93904 22.8607 7.63943 22.6114 7.38857V7.38857Z" stroke="white" stroke-width="1.5" stroke-linecap="round" stroke-linejoin="round"/>
</g>
<defs>
<clipPath id="clip0_357_3389">
<rect width="18" height="18" fill="white" transform="translate(6 6)"/>
</clipPath>
</defs>
</svg>
