<svg width="30" height="30" viewBox="0 0 30 30" fill="none" xmlns="http://www.w3.org/2000/svg">
<path d="M15.6923 8.76923C15.6923 8.03479 15.4005 7.33042 14.8812 6.81109C14.3618 6.29176 13.6575 6 12.923 6C12.1886 6 11.4842 6.29176 10.9649 6.81109C10.4456 7.33042 10.1538 8.03479 10.1538 8.76923V17.0769" stroke="#3F71D1" stroke-width="1.5" stroke-linecap="round" stroke-linejoin="round"/>
<path d="M15.6924 11.5385V12.9231" stroke="#3F71D1" stroke-width="1.5" stroke-linecap="round" stroke-linejoin="round"/>
<path d="M6 17.0769H24V19.8462C24 20.9478 23.5624 22.0044 22.7834 22.7834C22.0044 23.5624 20.9478 24 19.8462 24H10.1538C9.05218 24 7.99563 23.5624 7.21663 22.7834C6.43764 22.0044 6 20.9478 6 19.8462V17.0769Z" stroke="#989898" stroke-width="1.5" stroke-linecap="round" stroke-linejoin="round"/>
</svg>
