<svg width="24" height="24" viewBox="0 0 24 24" fill="none" xmlns="http://www.w3.org/2000/svg">
<path d="M10 6H14C16 6 16 5 16 4C16 2 15 2 14 2H10C9 2 8 2 8 4C8 6 9 6 10 6Z" stroke="#535353" stroke-miterlimit="10" stroke-linecap="round" stroke-linejoin="round"/>
<path d="M16 4.01999C19.33 4.19999 21 5.42999 21 9.99999V16C21 20 20 22 15 22H9C4 22 3 20 3 16V9.99999C3 5.43999 4.67 4.19999 8 4.01999" stroke="#535353" stroke-miterlimit="10" stroke-linecap="round" stroke-linejoin="round"/>
<path d="M11.5546 10.2937H7.52621" stroke="#989898" stroke-linecap="round" stroke-linejoin="round"/>
<path d="M11.5546 12.5317H7.52621" stroke="#989898" stroke-linecap="round" stroke-linejoin="round"/>
<path d="M15.583 14.7697H7.52621" stroke="#989898" stroke-linecap="round" stroke-linejoin="round"/>
<path d="M15.583 17.0077H7.52621" stroke="#989898" stroke-linecap="round" stroke-linejoin="round"/>
<path d="M15.8956 8.43347L13.3292 11.051C13.2323 11.1504 13.1386 11.3462 13.1198 11.4817L13.0041 12.4576C12.9635 12.81 13.2261 13.051 13.5887 12.9908L14.5952 12.8251C14.7359 12.801 14.9328 12.7016 15.0297 12.5992L17.596 9.98168C18.0399 9.52987 18.2399 9.0148 17.5491 8.38527C16.8614 7.76177 16.3394 7.98165 15.8956 8.43347Z" stroke="#3F71D1" stroke-miterlimit="10" stroke-linecap="round" stroke-linejoin="round"/>
<path d="M15.7309 9.17542C16 9.5 16.5 10 16.8919 10.3683" stroke="#3F71D1" stroke-miterlimit="10" stroke-linecap="round" stroke-linejoin="round"/>
</svg>
