<svg width="20" height="20" viewBox="0 0 20 20" fill="none" xmlns="http://www.w3.org/2000/svg">
<path d="M13.8599 17.1667H6.13992C4.31325 17.1667 2.83325 15.68 2.83325 13.8533V8.91333C2.83325 8.00666 3.39325 6.86666 4.11325 6.30666L7.70659 3.50666C8.78659 2.66666 10.5133 2.62666 11.6333 3.41333L15.7533 6.29999C16.5466 6.85333 17.1666 8.03999 17.1666 9.00666V13.86C17.1666 15.68 15.6866 17.1667 13.8599 17.1667ZM8.31992 4.29333L4.72659 7.09333C4.25325 7.46666 3.83325 8.31333 3.83325 8.91333V13.8533C3.83325 15.1267 4.86659 16.1667 6.13992 16.1667H13.8599C15.1333 16.1667 16.1666 15.1333 16.1666 13.86V9.00666C16.1666 8.36666 15.7066 7.47999 15.1799 7.11999L11.0599 4.23333C10.2999 3.69999 9.04658 3.72666 8.31992 4.29333Z" fill="#535353"/>
<path d="M10 14.5C9.72667 14.5 9.5 14.2733 9.5 14V12C9.5 11.7267 9.72667 11.5 10 11.5C10.2733 11.5 10.5 11.7267 10.5 12V14C10.5 14.2733 10.2733 14.5 10 14.5Z" fill="#535353"/>
</svg>
