<svg width="30" height="30" viewBox="0 0 30 30" fill="none" xmlns="http://www.w3.org/2000/svg">
<path d="M15.5 21.8596C17.8993 21.8559 20.2091 20.9487 21.9696 19.3186C23.7301 17.6885 24.812 15.4552 25 13.0633C25.0002 12.8738 24.927 12.6917 24.7958 12.555C24.6646 12.4184 24.4856 12.3378 24.2963 12.3302H6.7037C6.51442 12.3378 6.33542 12.4184 6.20423 12.555C6.07304 12.6917 5.99985 12.8738 6 13.0633C6.18796 15.4552 7.26991 17.6885 9.03039 19.3186C10.7909 20.9487 13.1007 21.8559 15.5 21.8596V21.8596Z" stroke="#989898" stroke-width="1.5" stroke-linecap="round" stroke-linejoin="round"/>
<path d="M11.1752 20.8187L10.3689 24.0586" stroke="#989898" stroke-width="1.5" stroke-linecap="round" stroke-linejoin="round"/>
<path d="M19.825 20.8187L20.6313 24.0586" stroke="#989898" stroke-width="1.5" stroke-linecap="round" stroke-linejoin="round"/>
<path d="M10.3689 8.66512V7.19907" stroke="#3F71D1" stroke-width="1.5" stroke-linecap="round" stroke-linejoin="round"/>
<path d="M20.6311 8.66512V7.19907" stroke="#3F71D1" stroke-width="1.5" stroke-linecap="round" stroke-linejoin="round"/>
<path d="M15.5 8.66512V4.99999" stroke="#3F71D1" stroke-width="1.5" stroke-linecap="round" stroke-linejoin="round"/>
</svg>
