<svg width="20" height="20" viewBox="0 0 20 20" fill="none" xmlns="http://www.w3.org/2000/svg">
<path d="M3.15385 4.30768C2.84783 4.30768 2.55434 4.42924 2.33795 4.64563C2.12157 4.86202 2 5.15551 2 5.46152V15.8461C2 16.1522 2.12157 16.4456 2.33795 16.662C2.55434 16.8784 2.84783 17 3.15385 17H15.8462C16.1522 17 16.4457 16.8784 16.662 16.662C16.8784 16.4456 17 16.1522 17 15.8461V5.46152C17 5.15551 16.8784 4.86202 16.662 4.64563C16.4457 4.42924 16.1522 4.30768 15.8462 4.30768H13.5385" stroke="#535353" stroke-width="1.5" stroke-linecap="round" stroke-linejoin="round"/>
<path d="M5.46143 2V6.61538" stroke="#535353" stroke-width="1.5" stroke-linecap="round" stroke-linejoin="round"/>
<path d="M13.5386 2V6.61538" stroke="#535353" stroke-width="1.5" stroke-linecap="round" stroke-linejoin="round"/>
<path d="M5.46143 4.30768H11.2307" stroke="#535353" stroke-width="1.5" stroke-linecap="round" stroke-linejoin="round"/>
<path d="M8.86533 7.61922C8.915 7.49129 9.00218 7.38135 9.11543 7.30384C9.22868 7.22632 9.36271 7.18484 9.49995 7.18484C9.63718 7.18484 9.77122 7.22632 9.88447 7.30384C9.99771 7.38135 10.0849 7.49129 10.1346 7.61922L10.873 9.49999H12.8461C12.9751 9.50983 13.0988 9.55564 13.2031 9.6322C13.3074 9.70877 13.3882 9.81304 13.4362 9.93317C13.4843 10.0533 13.4977 10.1845 13.475 10.3119C13.4522 10.4393 13.3943 10.5577 13.3076 10.6538L11.5653 12.2231L12.3038 13.7C12.3706 13.8297 12.3933 13.9776 12.3683 14.1213C12.3433 14.265 12.272 14.3967 12.1653 14.4961C12.0594 14.5969 11.9247 14.6621 11.7799 14.6828C11.6352 14.7035 11.4876 14.6786 11.3576 14.6115L9.49995 13.5961L7.64225 14.6115C7.51232 14.6786 7.36473 14.7035 7.21998 14.6828C7.07524 14.6621 6.94053 14.5969 6.83456 14.4961C6.72786 14.3967 6.65659 14.265 6.6316 14.1213C6.6066 13.9776 6.62925 13.8297 6.6961 13.7L7.43456 12.2231L5.69225 10.6538C5.60562 10.5577 5.54765 10.4393 5.52492 10.3119C5.5022 10.1845 5.51562 10.0533 5.56368 9.93317C5.61173 9.81304 5.69249 9.70877 5.7968 9.6322C5.9011 9.55564 6.02478 9.50983 6.15379 9.49999H8.12687L8.86533 7.61922Z" stroke="#535353" stroke-width="1.5" stroke-linecap="round" stroke-linejoin="round"/>
</svg>
