<svg width="226" height="55" viewBox="0 0 226 55" fill="none" xmlns="http://www.w3.org/2000/svg">
<rect width="225.5" height="55" rx="4" fill="#FEE500"/>
<g clip-path="url(#clip0_452_4611)">
<path fill-rule="evenodd" clip-rule="evenodd" d="M65.25 20.0333C60.8315 20.0333 57.25 22.8004 57.25 26.2132C57.25 28.3356 58.6353 30.2067 60.7447 31.3196L59.8571 34.5618C59.7787 34.8483 60.1064 35.0767 60.358 34.9107L64.2486 32.3429C64.5769 32.3746 64.9105 32.3931 65.25 32.3931C69.6682 32.3931 73.25 29.6261 73.25 26.2132C73.25 22.8004 69.6682 20.0333 65.25 20.0333Z" fill="black"/>
</g>
<g clip-path="url(#clip1_452_4611)">
<path d="M96.908 20.058C96.89 25.548 94.388 29.22 89.798 31.632L88.61 30.3C90.932 29.238 92.876 27.528 93.974 25.314L89.276 25.818L88.988 24.216L94.586 23.802C94.784 23.082 94.928 22.344 94.982 21.552H89.798V20.058H96.908ZM101.246 18.384V24.648H103.73V26.178H101.246V34.422H99.392V18.384H101.246ZM112.482 20.058C112.464 25.548 109.962 29.22 105.372 31.632L104.184 30.3C106.506 29.238 108.45 27.528 109.548 25.314L104.85 25.818L104.562 24.216L110.16 23.802C110.358 23.082 110.502 22.344 110.556 21.552H105.372V20.058H112.482ZM116.82 18.384V24.648H119.304V26.178H116.82V34.422H114.966V18.384H116.82ZM134.428 32.37H119.938V30.894H126.238V28.158C123.268 27.87 121.378 26.178 121.378 23.784C121.378 21.138 123.7 19.374 127.174 19.374C130.702 19.374 133.006 21.138 133.006 23.784C133.006 26.196 131.08 27.888 128.074 28.176V30.894H134.428V32.37ZM131.152 23.802C131.152 22.092 129.586 20.886 127.174 20.886C124.816 20.886 123.232 22.092 123.232 23.802C123.232 25.494 124.816 26.646 127.174 26.646C129.568 26.646 131.152 25.494 131.152 23.802ZM140.836 34.944V23.064H142.546V23.802H142.618C143.176 23.28 144.13 22.884 145.246 22.884C147.244 22.884 148.99 23.982 148.99 27.366V27.618C148.99 31.02 147.37 32.298 144.85 32.298C143.824 32.298 143.086 32.028 142.6 31.758V34.944H140.836ZM144.634 30.912C146.218 30.912 147.136 30.192 147.136 27.852V27.474C147.136 25.08 146.272 24.378 144.724 24.378C143.752 24.378 142.978 24.684 142.6 24.972V30.336C142.978 30.624 143.752 30.912 144.634 30.912ZM153.124 32.406C151.468 32.406 150.28 31.578 150.28 29.796C150.28 28.158 151.36 27.348 153.142 27.114L155.446 26.844V26.052C155.446 24.684 154.87 24.378 153.25 24.378C152.35 24.378 151.594 24.522 151.036 24.648V23.406C151.882 23.064 152.818 22.884 153.952 22.884C156.022 22.884 157.228 23.748 157.228 25.602V32.244H155.77L155.608 31.47H155.5C155.068 32.01 154.312 32.406 153.124 32.406ZM153.592 31.11C154.348 31.11 155.086 30.858 155.446 30.516V28.068L153.538 28.266C152.566 28.374 152.08 28.77 152.08 29.724C152.08 30.66 152.674 31.11 153.592 31.11ZM160.278 34.926C159.846 34.926 159.306 34.8 159.054 34.674V33.432C159.27 33.504 159.612 33.54 159.918 33.54C160.782 33.54 161.43 33.468 161.7 32.766L162.096 31.74L158.586 23.064H160.476L162.978 29.49H163.014L165.318 23.064H167.046L163.356 33.018C162.726 34.746 161.898 34.926 160.278 34.926Z" fill="black" fill-opacity="0.85"/>
</g>
<defs>
<clipPath id="clip0_452_4611">
<rect width="16" height="16.0001" fill="white" transform="translate(57.25 19.5)"/>
</clipPath>
<clipPath id="clip1_452_4611">
<rect width="80" height="27" fill="white" transform="translate(88.25 14)"/>
</clipPath>
</defs>
</svg>
