<svg width="226" height="55" viewBox="0 0 226 55" fill="none" xmlns="http://www.w3.org/2000/svg">
<rect x="0.5" width="225.5" height="55" rx="4" fill="#03C75A"/>
<g clip-path="url(#clip0_452_4616)">
<path d="M68.5991 28.0627L62.6669 19.5H57.75V35.5H62.9009V26.936L68.8331 35.5H73.75V19.5H68.5991V28.0627Z" fill="white"/>
</g>
<path d="M96.904 29.886C95.752 30.12 93.556 30.354 91.63 30.372L90.046 30.39V19.932H91.882V28.824C93.448 28.824 95.608 28.626 96.634 28.356L96.904 29.886ZM102.79 34.422H101.026V18.384H102.79V34.422ZM99.568 33.648H97.822V25.044H94.546V23.514H97.822V18.708H99.568V33.648ZM118.058 34.422H116.222V18.384H118.058V34.422ZM105.332 25.242C105.332 21.858 106.862 19.626 109.436 19.626C112.01 19.626 113.504 21.858 113.504 25.26C113.504 28.626 112.01 30.858 109.436 30.858C106.862 30.858 105.332 28.626 105.332 25.242ZM111.758 25.242C111.758 22.668 110.804 21.138 109.436 21.138C108.086 21.138 107.15 22.668 107.15 25.242C107.15 27.816 108.086 29.364 109.436 29.364C110.804 29.364 111.758 27.816 111.758 25.242ZM133.632 34.422H131.796V25.674H129.114V24.126H131.796V18.384H133.632V34.422ZM128.412 30.426H120.906V19.644H122.76V23.64H126.558V19.644H128.412V30.426ZM126.558 28.932V25.08H122.76V28.932H126.558ZM141.336 34.944V23.064H143.046V23.802H143.118C143.676 23.28 144.63 22.884 145.746 22.884C147.744 22.884 149.49 23.982 149.49 27.366V27.618C149.49 31.02 147.87 32.298 145.35 32.298C144.324 32.298 143.586 32.028 143.1 31.758V34.944H141.336ZM145.134 30.912C146.718 30.912 147.636 30.192 147.636 27.852V27.474C147.636 25.08 146.772 24.378 145.224 24.378C144.252 24.378 143.478 24.684 143.1 24.972V30.336C143.478 30.624 144.252 30.912 145.134 30.912ZM153.624 32.406C151.968 32.406 150.78 31.578 150.78 29.796C150.78 28.158 151.86 27.348 153.642 27.114L155.946 26.844V26.052C155.946 24.684 155.37 24.378 153.75 24.378C152.85 24.378 152.094 24.522 151.536 24.648V23.406C152.382 23.064 153.318 22.884 154.452 22.884C156.522 22.884 157.728 23.748 157.728 25.602V32.244H156.27L156.108 31.47H156C155.568 32.01 154.812 32.406 153.624 32.406ZM154.092 31.11C154.848 31.11 155.586 30.858 155.946 30.516V28.068L154.038 28.266C153.066 28.374 152.58 28.77 152.58 29.724C152.58 30.66 153.174 31.11 154.092 31.11ZM160.778 34.926C160.346 34.926 159.806 34.8 159.554 34.674V33.432C159.77 33.504 160.112 33.54 160.418 33.54C161.282 33.54 161.93 33.468 162.2 32.766L162.596 31.74L159.086 23.064H160.976L163.478 29.49H163.514L165.818 23.064H167.546L163.856 33.018C163.226 34.746 162.398 34.926 160.778 34.926Z" fill="white"/>
<defs>
<clipPath id="clip0_452_4616">
<rect width="16" height="16" fill="white" transform="translate(57.75 19.5)"/>
</clipPath>
</defs>
</svg>
