<svg width="24" height="24" viewBox="0 0 24 24" fill="none" xmlns="http://www.w3.org/2000/svg">
<circle cx="12.0001" cy="15.3802" r="7.392" stroke="black" stroke-width="1.056"/>
<circle cx="11.9996" cy="6.13995" r="5.445" fill="white" stroke="black" stroke-width="0.99"/>
<path d="M10.6797 5.47998V6.13998" stroke="black" stroke-width="0.924" stroke-linecap="round"/>
<path d="M13.3203 5.47989V6.13989" stroke="black" stroke-width="0.924" stroke-linecap="round"/>
<path d="M12 14.7201V14.0601" stroke="black" stroke-width="0.66" stroke-linecap="round"/>
<path d="M12 16.0398V16.6998" stroke="black" stroke-width="0.66" stroke-linecap="round"/>
<path d="M12 18.6797V19.3397" stroke="black" stroke-width="0.66" stroke-linecap="round"/>
<path d="M22.4675 8.42299C22.5936 8.29138 22.5891 8.08248 22.4575 7.9564C22.3259 7.83032 22.117 7.8348 21.9909 7.96641L22.4675 8.42299ZM19.0086 12.0335L20.7381 10.2283L20.2615 9.77169L18.5321 11.577L19.0086 12.0335ZM20.7381 10.2283L22.4675 8.42299L21.9909 7.96641L20.2615 9.77169L20.7381 10.2283Z" fill="black"/>
<path d="M1.51407 8.44585C1.38648 8.3157 1.38856 8.10677 1.5187 7.97918C1.64885 7.8516 1.85778 7.85367 1.98537 7.98382L1.51407 8.44585ZM5.01434 12.0163L3.2642 10.2311L3.7355 9.76904L5.48564 11.5543L5.01434 12.0163ZM3.2642 10.2311L1.51407 8.44585L1.98537 7.98382L3.7355 9.76904L3.2642 10.2311Z" fill="black"/>
<path d="M14.7899 7.55211C13.937 7.35487 13.0174 7.15485 12.0756 7.02705C11.7896 6.98816 11.5117 7.1243 11.331 7.39376C11.1506 7.66325 11.109 8.03553 11.2616 8.30499C11.384 8.52724 11.6729 8.78284 12.334 8.78284H12.4673L12.4952 8.77728L14.7899 8.25221C14.8684 8.23355 14.9383 8.189 14.9882 8.12572C15.0381 8.06246 15.0654 7.98418 15.0654 7.90357C15.0654 7.82293 15.0381 7.74465 14.9882 7.68139C14.9383 7.61813 14.8684 7.57355 14.7899 7.55489V7.55211ZM14.7231 7.95218L13.2618 8.28554C13.2813 8.18275 13.3008 8.07996 13.3174 7.97719C13.3676 7.80215 13.0952 7.72715 13.0507 7.90216C13.0564 8.01884 12.9647 8.21054 12.9618 8.35501L12.4395 8.47446C11.9783 8.49391 11.6534 8.38277 11.5283 8.15498C11.4311 7.98551 11.4534 7.75492 11.5839 7.56602C11.7145 7.3771 11.8312 7.3271 11.9812 7.3271H12.034L12.2924 7.36322C12.0646 7.98829 12.5396 7.97995 12.5063 7.69936V7.65769C12.523 7.57434 12.5562 7.49377 12.5703 7.40767C13.0757 7.49102 13.5759 7.59103 14.0565 7.69658C14.0587 7.71129 14.0596 7.72617 14.0591 7.74103C14.0572 7.75354 14.0534 7.76568 14.0482 7.77714C14.0427 7.78884 14.0361 7.80001 14.0287 7.8105C13.8286 8.06329 14.2344 8.19388 14.3204 7.84382C14.3302 7.81694 14.3368 7.78893 14.3399 7.76048L14.7231 7.84661C14.7348 7.84863 14.7452 7.85488 14.7524 7.86413C14.7595 7.87335 14.7631 7.88493 14.7621 7.8966C14.7638 7.90906 14.7607 7.9217 14.7535 7.932C14.7464 7.94229 14.7355 7.94949 14.7231 7.95218Z" fill="black"/>
</svg>
