<svg width="25" height="24" viewBox="0 0 25 24" fill="none" xmlns="http://www.w3.org/2000/svg">
<path d="M12.5 12C15.2614 12 17.5 9.76142 17.5 7C17.5 4.23858 15.2614 2 12.5 2C9.73858 2 7.5 4.23858 7.5 7C7.5 9.76142 9.73858 12 12.5 12Z" stroke="white" stroke-width="1.5" stroke-linecap="round" stroke-linejoin="round"/>
<path d="M3.91003 22C3.91003 18.13 7.76003 15 12.5 15C13.46 15 13.5 15 14.5 15" stroke="white" stroke-width="1.5" stroke-linecap="round" stroke-linejoin="round"/>
<path d="M23.5 19C23.5 19.32 23.46 19.63 23.38 19.93C23.29 20.33 23.13 20.72 22.92 21.06C22.23 22.22 20.96 23 19.5 23C18.47 23 17.54 22.61 16.84 21.97C16.54 21.71 16.28 21.4 16.08 21.06C15.71 20.46 15.5 19.75 15.5 19C15.5 17.92 15.93 16.93 16.63 16.21C17.36 15.46 18.38 15 19.5 15C20.68 15 21.75 15.51 22.47 16.33C23.11 17.04 23.5 17.98 23.5 19Z" stroke="white" stroke-miterlimit="10" stroke-linecap="round" stroke-linejoin="round"/>
<path d="M20.53 17.94L18.42 20.05" stroke="white" stroke-miterlimit="10" stroke-linecap="round" stroke-linejoin="round"/>
<path d="M18.4401 17.96L20.5601 20.07" stroke="white" stroke-miterlimit="10" stroke-linecap="round" stroke-linejoin="round"/>
</svg>
