<svg width="25" height="25" viewBox="0 0 25 25" fill="none" xmlns="http://www.w3.org/2000/svg">
<path d="M12.5 12.8516C15.2614 12.8516 17.5 10.613 17.5 7.85156C17.5 5.09014 15.2614 2.85156 12.5 2.85156C9.73858 2.85156 7.5 5.09014 7.5 7.85156C7.5 10.613 9.73858 12.8516 12.5 12.8516Z" stroke="white" stroke-width="1.5" stroke-linecap="round" stroke-linejoin="round"/>
<path d="M19.7101 16.5916L16.17 20.1316C16.03 20.2716 15.9 20.5316 15.87 20.7216L15.68 22.0716C15.61 22.5616 15.95 22.9016 16.44 22.8316L17.79 22.6416C17.98 22.6116 18.25 22.4816 18.38 22.3416L21.92 18.8016C22.53 18.1916 22.82 17.4816 21.92 16.5816C21.03 15.6916 20.3201 15.9816 19.7101 16.5916Z" stroke="white" stroke-width="1.5" stroke-miterlimit="10" stroke-linecap="round" stroke-linejoin="round"/>
<path d="M19.2002 17.1016C19.5002 18.1816 20.3402 19.0215 21.4202 19.3215" stroke="white" stroke-width="1.5" stroke-miterlimit="10" stroke-linecap="round" stroke-linejoin="round"/>
<path d="M3.91016 22.8516C3.91016 18.9816 7.76018 15.8516 12.5002 15.8516C13.5402 15.8516 14.5402 16.0016 15.4702 16.2816" stroke="white" stroke-width="1.5" stroke-linecap="round" stroke-linejoin="round"/>
</svg>
