<svg width="24" height="24" viewBox="0 0 24 24" fill="none" xmlns="http://www.w3.org/2000/svg">
<path d="M14.4541 12.1658H18.7986C20.0177 12.1658 20.9996 11.1124 20.9996 9.82397C20.9996 8.52684 20.0096 7.48218 18.7986 7.48218C17.5796 7.48218 16.5977 8.53555 16.5977 9.82397" stroke="black" stroke-miterlimit="10" stroke-linecap="round" stroke-linejoin="round"/>
<path d="M5.4541 10.0939H11.703C13.2268 10.0939 14.4541 8.72333 14.4541 7.04694C14.4541 5.35923 13.2166 4 11.703 4C10.1791 4 8.95182 5.37056 8.95182 7.04694" stroke="black" stroke-miterlimit="10" stroke-linecap="round" stroke-linejoin="round"/>
<path d="M3 14.0113H11.7034C13.2273 14.0113 14.4545 15.3819 14.4545 17.0583C14.4545 18.746 13.217 20.1052 11.7034 20.1052C10.1795 20.1052 8.95227 18.7347 8.95227 17.0583" stroke="black" stroke-miterlimit="10" stroke-linecap="round" stroke-linejoin="round"/>
</svg>
